<?xml version="1.0" encoding="UTF-8"?>
<svg width="200px" height="230px" viewBox="0 0 200 230" version="1.1" xmlns="http://www.w3.org/2000/svg" xmlns:xlink="http://www.w3.org/1999/xlink">
    <!-- Generator: Sketch 49 (51002) - http://www.bohemiancoding.com/sketch -->
    <title>Icon</title>
    <desc>Created with Sketch.</desc>
    <defs></defs>
    <g id="Page-1" stroke="none" stroke-width="1" fill="none" fill-rule="evenodd">
        <g id="HubSpot" fill-rule="nonzero">
            <g id="Icon">
                <polygon id="Polygon" fill="#FF7A59" points="100 0 200 57.5 200 172.5 100 230 0 172.5 0 57.5"></polygon>
                <path d="M124.529291,97.8818483 L124.529291,85.6728326 C127.822675,84.1339847 129.933757,80.8343515 129.950645,77.1992241 L129.950645,76.9171884 C129.950645,71.725053 125.741588,67.5159956 120.549452,67.5159956 L120.267417,67.5159956 C115.075281,67.5159956 110.866224,71.725053 110.866224,76.9171884 L110.866224,77.1992241 C110.883112,80.8343515 112.994194,84.1339847 116.287578,85.6728326 L116.287578,97.8818483 C111.650309,98.5912908 107.282819,100.513419 103.627305,103.453622 L70.1465241,77.3747131 C70.383467,76.514728 70.5098344,75.62805 70.5225718,74.7361116 C70.5301747,70.4514819 67.9556966,66.5842811 63.9998818,64.9381831 C60.0440669,63.2920851 55.4861617,64.1913506 52.4519863,67.2165597 C49.417811,70.2417688 48.5050605,74.7969928 50.1394443,78.7576618 C51.7738281,82.7183309 55.6333928,85.3042425 59.9180263,85.3093198 C61.7501382,85.3011302 63.5480871,84.812745 65.1325546,83.8928734 L98.1056714,109.545595 C92.0423985,118.703259 92.2040323,130.639289 98.5130564,139.629412 L88.4851175,149.657351 C87.674185,149.39839 86.8293366,149.261102 85.9781327,149.249966 C81.1753103,149.253427 77.2840118,153.148467 77.2851656,157.95129 C77.2863195,162.754114 81.179489,166.647283 85.9823126,166.648437 C90.7851361,166.649591 94.6801757,162.758293 94.6836372,157.95547 C94.6728711,157.104234 94.5355743,156.259331 94.2762522,155.448485 L104.197644,145.527093 C113.061885,152.348408 125.234354,152.934388 134.71284,146.996089 C144.191326,141.057789 148.974405,129.849107 146.703552,118.897015 C144.432701,107.944923 135.587418,99.5620016 124.529291,97.8818483 M120.417836,138.031209 C112.83977,138.024288 106.701172,131.877275 106.704632,124.299207 C106.708092,116.721138 112.852299,110.579734 120.430369,110.579732 C128.008438,110.57973 134.152649,116.721132 134.156112,124.2992 C134.156112,131.879718 128.010888,138.024941 120.430371,138.024941" id="Shape-Copy-4" fill="#FFFFFF"></path>
            </g>
        </g>
    </g>
</svg>