<?xml version="1.0" encoding="UTF-8"?>
<svg width="157px" height="164px" viewBox="0 0 157 164" version="1.1" xmlns="http://www.w3.org/2000/svg" xmlns:xlink="http://www.w3.org/1999/xlink">
    <!-- Generator: Sketch 49 (51002) - http://www.bohemiancoding.com/sketch -->
    <title>Shape</title>
    <desc>Created with Sketch.</desc>
    <defs></defs>
    <g id="Page-1" stroke="none" stroke-width="1" fill="none" fill-rule="evenodd">
        <g id="HSLogo_color" transform="translate(0.000000, -0.972656)" fill="#000000" fill-rule="nonzero">
            <g id="Group">
                <path d="M120,54.85 L120,35.37 C125.254734,32.9147032 128.623055,27.6499991 128.65,21.85 L128.65,21.4 C128.65,13.1157288 121.934271,6.4 113.65,6.4 L113.2,6.4 C104.915729,6.4 98.2,13.1157288 98.2,21.4 L98.2,21.85 C98.2269454,27.6499991 101.595266,32.9147032 106.85,35.37 L106.85,54.85 C99.451041,55.9819455 92.4825266,59.0487818 86.65,63.74 L33.23,22.13 C33.6080525,20.7578575 33.809677,19.3431254 33.83,17.92 C33.8421307,11.0836923 29.7344423,4.91341029 23.4227727,2.28699137 C17.111103,-0.339427551 9.83877283,1.09538862 4.99761797,5.92223746 C0.156463111,10.7490863 -1.29986887,18.0171384 1.30785949,24.3365531 C3.91558784,30.6559679 10.0736863,34.7818989 16.91,34.79 C19.8332119,34.7769331 22.7019152,33.997694 25.23,32.53 L77.84,73.46 C68.1657921,88.0714402 68.4236856,107.115879 78.49,121.46 L62.49,137.46 C61.1961231,137.046817 59.8481317,136.827769 58.49,136.81 C50.826894,136.815523 44.618163,143.030223 44.620004,150.693331 C44.621845,158.356439 50.8335613,164.568155 58.4966691,164.569996 C66.1597769,164.571837 72.374477,158.363106 72.38,150.7 C72.3628221,149.341817 72.1437594,147.993739 71.73,146.7 L87.56,130.87 C101.70327,141.753696 121.124959,142.688652 136.248283,133.213844 C151.371608,123.739037 159.003212,105.855111 155.379971,88.3805858 C151.756731,70.9060603 137.643709,57.5307556 120,54.85 M113.44,118.91 C101.348876,118.898957 91.5544843,109.091139 91.5600046,97.0000107 C91.5655248,84.9088824 101.368867,75.1100121 113.459997,75.1100091 C125.551126,75.1100062 135.354474,84.9088718 135.36,97 C135.36,109.095036 125.555036,118.9 113.46,118.9" id="Shape"></path>
            </g>
        </g>
    </g>
</svg>